PathFileType	4	(X/Y/Z)	./resultDataOpenSim/trcMotMarkerGrf/sub10/qtm-05-04.trc
DataRate	CameraRate	NumFrames	NumMarkers	Units	OrigDataRate	OrigDataStartFrame	OrigNumFrames
250.000000	250.000000	13	24	m	250.000000	1	516
Frame#	Time	L.Toe.Tip			R.Toe.Tip			L.Ankle.Lat			R.Ankle.Lat			L.Ankle.Med			R.Ankle.Med			L.Heel			R.Heel			L.Knee.Lat			R.Knee.Lat			L.Knee.Med			R.Knee.Med			L.Thigh.Upper			R.Thigh.Upper			L.ASIS			R.ASIS			V.Sacral			L.Acromium			R.Acromium			C7			L.Elbow			R.Elbow			L.Wrist.Lat			R.Wrist.Lat
		X1	Y1	Z1	X2	Y2	Z2	X3	Y3	Z3	X4	Y4	Z4	X5	Y5	Z5	X6	Y6	Z6	X7	Y7	Z7	X8	Y8	Z8	X9	Y9	Z9	X10	Y10	Z10	X11	Y11	Z11	X12	Y12	Z12	X13	Y13	Z13	X14	Y14	Z14	X15	Y15	Z15	X16	Y16	Z16	X17	Y17	Z17	X18	Y18	Z18	X19	Y19	Z19	X20	Y20	Z20	X21	Y21	Z21	X22	Y22	Z22	X23	Y23	Z23	X24	Y24	Z24

1	0	-1.5186096	0.038174587	-0.12396298	-1.0664571	0.071685975	0.028819456	-1.651737	0.064142249	-0.14881009	-1.2079367	0.068796376	0.034634216	-1.6540518	0.085208987	-0.065211998	-1.1768806	0.10185585	-0.04043538	NaN	NaN	NaN	-1.2422151	0.036992126	-0.027906395	-1.5267198	0.43195652	-0.18912374	-1.2298765	0.46655478	0.075356733	-1.5284361	0.41205861	-0.067572198	-1.2066841	0.47753878	-0.050917165	-1.4388443	0.81727618	-0.25359546	-1.4038579	0.84162215	0.12644337	-1.3655232	0.92310095	-0.19674358	-1.340807	0.93430598	0.049696941	-1.5518059	0.94160559	-0.055405275	-1.3784069	1.3958672	-0.2230262	-1.3977597	1.3921222	0.099567314	-1.463988	1.4332647	-0.070374476	-1.4426543	1.0547048	-0.27937265	-1.5368949	1.069086	0.13890076	-1.2580189	0.88791515	-0.29843135	-1.4405892	0.85650828	0.21114722
2	0.004	-1.5185866	0.038117212	-0.12389814	-1.0505662	0.073613045	0.029238412	-1.6515791	0.064375594	-0.14871227	-1.1922311	0.067814935	0.035669333	-1.6506845	0.086430392	-0.064651631	-1.1622113	0.10167361	-0.039425902	NaN	NaN	NaN	-1.2259271	0.035300469	-0.026873309	-1.5240453	0.43132204	-0.18898619	-1.2251393	0.46499585	0.076131621	-1.525645	0.41138077	-0.067365042	-1.2012685	0.47606579	-0.05022255	-1.4345782	0.81630937	-0.25344828	-1.3982172	0.84054321	0.12657641	-1.3611548	0.92209602	-0.19676337	-1.3354835	0.93335666	0.049635814	-1.5470195	0.94001307	-0.05506137	-1.3739322	1.3947793	-0.22310396	-1.3928434	1.3908776	0.099401496	-1.459435	1.4320809	-0.070310308	-1.4363873	1.0530267	-0.27933659	-1.5336258	1.0685358	0.13937005	-1.2488195	0.88923739	-0.29751388	-1.4389886	0.85562579	0.21226821
3	0.008	-1.5185589	0.038061167	-0.12385751	-1.0348564	0.075700738	0.029650126	-1.6514115	0.064629339	-0.14861316	-1.1766	0.066991806	0.036768221	-1.6481977	0.087341743	-0.064330463	-1.147623	0.10161452	-0.03840479	NaN	NaN	NaN	-1.2097526	0.033794369	-0.025679641	-1.5213676	0.43067579	-0.18884683	-1.2203655	0.46334974	0.076920611	-1.5228626	0.41069759	-0.06715299	-1.195877	0.47454852	-0.049526216	-1.4303214	0.8153512	-0.25334974	-1.3925646	0.83944099	0.12675527	-1.3567801	0.92109939	-0.19675722	-1.3301352	0.93240824	0.04955613	-1.5421828	0.93856572	-0.054513062	-1.3694527	1.3936724	-0.22315704	-1.387946	1.3896398	0.099295154	-1.4548708	1.4308959	-0.070269905	-1.4301224	1.0513465	-0.27926273	-1.5305334	1.0681321	0.13978907	-1.2396465	0.8905976	-0.29658291	-1.4373521	0.85472815	0.21339206
4	0.012	-1.5185257	0.03800454	-0.12384648	-1.0194766	0.078094282	0.030114967	-1.6512214	0.064918811	-0.14850519	-1.1610074	0.066448046	0.03798668	-1.6466861	0.087917884	-0.064273877	-1.1331678	0.10175864	-0.037366852	NaN	NaN	NaN	-1.19374	0.03261141	-0.024118591	-1.5186852	0.43001535	-0.18871042	-1.2154588	0.46162747	0.077738852	-1.5200295	0.41002512	-0.066955993	-1.1905374	0.47296607	-0.048833147	-1.426112	0.81439253	-0.25333487	-1.3869735	0.83829529	0.12697047	-1.3523939	0.92009151	-0.19672233	-1.3247744	0.9314486	0.049452907	-1.5373059	0.93748837	-0.053493782	-1.3649671	1.3925318	-0.22318954	-1.3830615	1.3884222	0.099270834	-1.4502874	1.4296991	-0.070269293	-1.4238647	1.049671	-0.27910939	-1.527527	1.067851	0.14012068	-1.2305043	0.8920108	-0.29562242	-1.4356693	0.85381594	0.21451119
5	0.016	-1.5184906	0.037948839	-0.12385481	-1.0045093	0.080818924	0.030669273	-1.6510054	0.06524585	-0.14838564	-1.145448	0.066240032	0.039338221	-1.6457782	0.088309289	-0.064374856	-1.1189438	0.1021149	-0.036314677	NaN	NaN	NaN	-1.1779315	0.031806239	-0.022055067	-1.5159884	0.42935689	-0.1885878	-1.2103901	0.45988322	0.078593689	-1.5170541	0.40937496	-0.066812023	-1.1852836	0.47132172	-0.048147309	-1.4219835	0.813417	-0.25340869	-1.3814687	0.83710823	0.1271933	-1.348005	0.91904808	-0.19667313	-1.3194362	0.93046465	0.049336769	-1.5324505	0.93694129	-0.051839454	-1.3604754	1.3913613	-0.22321922	-1.378183	1.3872348	0.099300176	-1.4456851	1.4284783	-0.070294214	-1.4176219	1.0480136	-0.27884311	-1.5243025	1.0675336	0.14032981	-1.2214075	0.89347271	-0.29461828	-1.4339614	0.85289977	0.21561834
6	0.02	-1.5184585	0.037901	-0.12387025	-0.98993966	0.083792122	0.031249327	-1.6507798	0.065601226	-0.14826871	-1.1300762	0.066328096	0.040764349	-1.6452677	0.088609307	-0.064573009	-1.1050562	0.10264094	-0.035255075	NaN	NaN	NaN	-1.1623901	0.031306183	-0.019660782	-1.5132663	0.42872218	-0.18848331	-1.2052395	0.45813795	0.079481405	-1.5139227	0.40872891	-0.066733377	-1.1801294	0.46962787	-0.047463628	-1.417863	0.81241968	-0.25348637	-1.3759519	0.83589229	0.12741264	-1.3436209	0.91796713	-0.19662253	-1.3141058	0.92945536	0.049222723	-1.5276242	0.93670785	-0.049809862	-1.3559683	1.390183	-0.2232492	-1.3733124	1.3860689	0.099336959	-1.4410595	1.427232	-0.070299231	-1.4113552	1.0463684	-0.27847961	-1.52066	1.0670638	0.14041059	-1.2123711	0.89497996	-0.29356409	-1.4322603	0.85198645	0.21671338
7	0.024	-1.5184333	0.037864711	-0.12388494	-0.97574051	0.08692835	0.03175376	-1.6505718	0.065979617	-0.14817655	-1.1151405	0.066598513	0.042171182	-1.6451207	0.088842889	-0.064843377	-1.0915596	0.10329228	-0.034193473	NaN	NaN	NaN	-1.1471942	0.030958747	-0.017368342	-1.5105308	0.42811984	-0.18838995	-1.2001145	0.4563935	0.080382873	-1.5107347	0.4080565	-0.066684647	-1.1750665	0.46790288	-0.046771464	-1.413617	0.81141263	-0.25343709	-1.3703744	0.8346479	0.12762179	-1.3392256	0.91686909	-0.19656905	-1.3087237	0.92842646	0.049114235	-1.5227556	0.93626745	-0.047994839	-1.3514438	1.3890141	-0.22326746	-1.3684429	1.3849067	0.099360921	-1.4364079	1.425972	-0.070251833	-1.4050008	1.0447101	-0.27808582	-1.5166528	1.0664535	0.14040717	-1.2034094	0.89653212	-0.29247297	-1.4305689	0.85108168	0.21779556
8	0.028	-1.5184197	0.037836514	-0.12389474	-0.9619208	0.090170532	0.032130311	-1.6503946	0.066392385	-0.14811848	-1.1007678	0.066958858	0.04351209	-1.6450696	0.089106576	-0.065078336	-1.078466	0.10404605	-0.033129525	NaN	NaN	NaN	-1.1323816	0.030664353	-0.015477257	-1.5077978	0.42754401	-0.18830487	-1.1950603	0.45465594	0.081275517	-1.5075888	0.4073498	-0.066620396	-1.1700798	0.46616746	-0.046063378	-1.4092242	0.81040525	-0.25324482	-1.3647747	0.8333798	0.12782016	-1.334776	0.91577906	-0.19650787	-1.3032471	0.92737813	0.048997459	-1.5177831	0.93530818	-0.046745417	-1.346905	1.3878462	-0.22326472	-1.3635535	1.3837415	0.099388444	-1.4317363	1.4247053	-0.070173067	-1.3985559	1.0430234	-0.27773328	-1.5124348	1.0657837	0.14038072	-1.1945354	0.89812655	-0.2913705	-1.4288524	0.85019175	0.21886174
9	0.032	-1.5184199	0.037811815	-0.12389745	-0.94850078	0.09345923	0.03240653	-1.6502376	0.066864475	-0.14808141	-1.0869086	0.067388674	0.044805755	-1.644586	0.089576316	-0.065118256	-1.06578	0.10488556	-0.032062622	NaN	NaN	NaN	-1.1179446	0.030415389	-0.013977313	-1.5050617	0.4269859	-0.18823356	-1.1900165	0.45294195	0.082165553	-1.5045043	0.40663061	-0.066522668	-1.1651558	0.46443896	-0.045339869	-1.4048043	0.80939203	-0.25302378	-1.3591649	0.83210928	0.12802193	-1.3302426	0.91470915	-0.19644963	-1.2976834	0.92630396	0.048851747	-1.5127078	0.93393586	-0.045946159	-1.3423461	1.3866577	-0.22324543	-1.3586463	1.382582	0.099450117	-1.4270538	1.4234278	-0.070119093	-1.3920955	1.0413141	-0.27746979	-1.5081134	1.0651305	0.14037684	-1.185751	0.89975899	-0.29026849	-1.4270824	0.84931913	0.21991003
10	0.036	-1.5184281	0.037790199	-0.12389406	-0.93547978	0.096718763	0.032680034	-1.6500774	0.067413116	-0.14803996	-1.0734775	0.067902788	0.046084202	-1.6434784	0.090307921	-0.064934787	-1.0535104	0.10578439	-0.030998565	NaN	NaN	NaN	-1.1039003	0.030246338	-0.012686914	-1.502301	0.42644418	-0.18817382	-1.1848735	0.45128843	0.083084352	-1.5014538	0.40592043	-0.066395152	-1.1602804	0.46272901	-0.044598259	-1.4004759	0.808378	-0.25287667	-1.3535356	0.83084602	0.12823507	-1.325639	0.91365263	-0.19640902	-1.2920772	0.92519654	0.048663036	-1.5075622	0.93240059	-0.045321414	-1.3377596	1.3854436	-0.22322174	-1.3537373	1.3814428	0.099549178	-1.4223591	1.4221414	-0.070110616	-1.3856833	1.0395957	-0.27729956	-1.503734	1.0645345	0.14041653	-1.1770332	0.90142745	-0.28915123	-1.4252587	0.84846416	0.2209423
11	0.04	-1.518431	0.037774118	-0.12389043	-0.922826	0.099881693	0.033043203	-1.6498895	0.068030422	-0.14797633	-1.0604433	0.068505182	0.047362561	-1.6421646	0.091152007	-0.064671953	-1.0416677	0.10670946	-0.02994784	NaN	NaN	NaN	-1.0903204	0.030206687	-0.01131883	-1.4994881	0.42592606	-0.18811674	-1.1795781	0.44974257	0.084045198	-1.4983883	0.40522507	-0.06625055	-1.1554313	0.46104659	-0.043827434	-1.3962579	0.80739907	-0.25281723	-1.3478776	0.82958877	0.12845145	-1.3209913	0.9125917	-0.19638654	-1.286463	0.92405762	0.048430549	-1.5023716	0.93085851	-0.044700238	-1.3331464	1.3842234	-0.2231977	-1.3488177	1.380333	0.099652593	-1.4176351	1.4208651	-0.070095791	-1.379319	1.0378802	-0.2771834	-1.4993184	1.063994	0.14049883	-1.1683346	0.90313509	-0.28798425	-1.4233958	0.84762491	0.22195741
12	0.044	-1.5184167	0.037764331	-0.12389447	-0.91048566	0.10293999	0.033464245	-1.6496567	0.068696773	-0.14789303	-1.0478112	0.069178302	0.048651086	-1.641134	0.091938281	-0.064471326	-1.0302533	0.10763005	-0.028915731	NaN	NaN	NaN	-1.0772751	0.030326045	-0.0096114188	-1.4966013	0.42543598	-0.18805957	-1.174145	0.44833356	0.08503473	-1.4952256	0.40455111	-0.066113041	-1.1505724	0.45940578	-0.043020191	-1.3920984	0.80648913	-0.25279725	-1.3421638	0.82835064	0.1286637	-1.316304	0.91151237	-0.19637631	-1.2808268	0.92290471	0.048172441	-1.4971475	0.92935608	-0.044038302	-1.3285072	1.3830228	-0.22316448	-1.343869	1.3792472	0.099735319	-1.4128661	1.4196151	-0.070010239	-1.372975	1.0361804	-0.27708355	-1.4948887	1.0634821	0.14061088	-1.1596219	0.9048857	-0.28674221	-1.4215183	0.84679033	0.22294689
13	0.048	-1.5183825	0.037757846	-0.12390915	-0.89841623	0.10593898	0.033783753	-1.6493762	0.069407788	-0.1478055	-1.0356012	0.06989844	0.049959959	-1.6404803	0.092632534	-0.064355359	-1.0192574	0.10852217	-0.027897441	NaN	NaN	NaN	-1.0647898	0.030567612	-0.0076067901	-1.4936389	0.42496596	-0.18800719	-1.1685821	0.44706579	0.086040951	-1.491882	0.40390587	-0.066013332	-1.1456639	0.45782601	-0.042177304	-1.3879429	0.80564091	-0.25275755	-1.3363706	0.82714545	0.12887453	-1.3115769	0.91041512	-0.19638534	-1.2751279	0.92175957	0.047920775	-1.4918899	0.9278903	-0.043352177	-1.323836	1.3818481	-0.22311402	-1.3388878	1.3781744	0.099807449	-1.4080561	1.4183876	-0.069852459	-1.3666353	1.0345109	-0.27699217	-1.4904555	1.0629655	0.14073364	-1.1509335	0.90667188	-0.28544618	-1.4196268	0.845946	0.22390586
